<?xml version="1.0" standalone="no"?>
<!DOCTYPE svg PUBLIC "-//W3C//DTD SVG 20010904//EN"
 "http://www.w3.org/TR/2001/REC-SVG-20010904/DTD/svg10.dtd">
<svg version="1.0" xmlns="http://www.w3.org/2000/svg"
 width="700.000000pt" height="700.000000pt" viewBox="0 0 700.000000 700.000000"
 preserveAspectRatio="xMidYMid meet">
<metadata>
Created by potrace 1.11, written by Peter Selinger 2001-2013
</metadata>
<g transform="translate(0.000000,700.000000) scale(0.100000,-0.100000)"
fill="#000000" stroke="none">
<path d="M3279 6996 c-2 -2 -42 -7 -89 -10 -47 -4 -96 -8 -110 -10 -14 -2 -46
-7 -71 -10 -352 -48 -713 -160 -1049 -324 -698 -340 -1266 -911 -1610 -1619
-33 -67 -60 -125 -60 -128 0 -3 -9 -24 -20 -48 -103 -221 -217 -653 -245 -927
-2 -14 -7 -61 -11 -105 -16 -152 -10 -601 11 -726 3 -23 12 -84 21 -159 16
-127 120 -530 154 -600 5 -8 25 -60 46 -115 122 -323 330 -674 573 -965 103
-124 304 -324 426 -425 33 -28 62 -52 65 -55 30 -33 309 -223 427 -293 77 -45
374 -191 428 -211 28 -10 64 -24 80 -31 99 -42 333 -115 450 -140 207 -45 210
-46 321 -61 22 -3 53 -7 69 -9 218 -31 687 -26 902 9 21 4 53 8 70 11 125 15
399 83 588 147 159 53 456 189 587 268 37 22 70 40 73 40 3 0 11 5 18 10 7 6
64 45 127 86 629 415 1118 1055 1367 1789 37 109 82 270 99 350 16 75 54 300
60 350 4 33 9 76 11 95 2 19 5 143 7 275 3 228 -3 349 -23 495 -1 3 -374 5
-831 5 -631 0 -830 3 -830 12 0 25 -75 233 -114 318 -246 526 -708 898 -1286
1034 -85 20 -109 24 -230 38 -113 13 -339 7 -455 -12 -658 -106 -1190 -519
-1447 -1125 -35 -82 -84 -233 -94 -287 -3 -15 -7 -29 -9 -33 -2 -4 -7 -29 -11
-56 -3 -27 -8 -51 -9 -55 -18 -29 -26 -389 -12 -504 29 -227 79 -397 178 -603
236 -490 678 -851 1214 -991 43 -12 99 -24 124 -27 25 -3 48 -7 51 -9 42 -25
538 -25 579 -1 3 2 26 7 51 10 226 30 555 174 781 341 302 223 556 585 665
947 13 45 27 84 30 87 3 3 181 6 395 6 450 1 403 17 368 -125 -11 -47 -22 -92
-24 -101 -47 -221 -246 -647 -397 -849 -330 -442 -711 -740 -1189 -930 -159
-64 -425 -136 -569 -155 -25 -3 -61 -8 -80 -11 -298 -39 -686 -13 -985 66
-689 183 -1262 620 -1629 1243 -151 257 -281 635 -323 937 -2 19 -6 46 -8 60
-7 43 -19 262 -19 335 0 80 12 268 19 305 2 14 7 42 9 62 4 33 18 111 30 174
2 11 18 73 35 137 115 426 348 834 661 1156 316 325 787 601 1207 707 73 18
258 55 303 60 30 3 63 8 72 9 115 22 500 22 628 0 14 -2 43 -6 65 -10 194 -28
414 -87 600 -162 371 -149 720 -394 987 -692 l57 -63 371 213 c203 117 370
217 370 222 0 18 -168 212 -286 331 -315 317 -694 577 -1079 741 -60 25 -119
50 -130 55 -163 71 -552 176 -725 196 -25 3 -52 7 -60 9 -8 2 -40 7 -70 11
-30 3 -73 8 -95 11 -48 5 -541 14 -546 9z m947 -1985 c287 -137 540 -366 707
-639 81 -133 190 -392 172 -410 -11 -11 -1144 -8 -1148 3 -3 9 -1 1132 2 1146
2 10 160 -49 267 -100z m-1181 -476 c0 -377 -3 -575 -10 -576 -46 -6 -1138 -2
-1142 4 -16 26 113 317 200 450 88 136 216 279 343 385 122 102 329 219 499
282 124 46 110 115 110 -545z m-10 -1497 c7 -4 10 -203 9 -575 -1 -312 -2
-571 -3 -575 -3 -18 -279 101 -396 171 -288 173 -510 413 -649 704 -52 109
-106 246 -106 270 0 10 128 12 568 12 312 0 572 -3 577 -7z m2075 -5 c0 -22
-52 -157 -100 -260 -158 -335 -449 -626 -785 -784 -86 -41 -239 -99 -258 -99
-9 0 -12 137 -11 573 1 314 2 574 3 577 0 3 260 5 576 5 443 0 575 -2 575 -12z"/>
</g>
</svg>
