<svg id="Layer_1" data-name="Layer 1" xmlns="http://www.w3.org/2000/svg" viewBox="0 0 540.46 980.8"><defs><style>.cls-1{fill:#fff809;}.cls-1,.cls-10,.cls-11,.cls-12,.cls-13,.cls-14,.cls-15,.cls-2,.cls-3,.cls-4,.cls-5,.cls-6,.cls-7,.cls-8,.cls-9{stroke:#000;stroke-miterlimit:10;}.cls-2{fill:none;}.cls-3{fill:#ff5733;}.cls-4{fill:#88000b;}.cls-5{fill:#4a00f6;}.cls-6{fill:#03a56a;}.cls-7{fill:#ff6d72;}.cls-8{fill:#8b00f6;}.cls-9{fill:#ff781a;}.cls-10{fill:#8cffec;}.cls-11{fill:#ff6de0;}.cls-12{fill:#1bdb00;}.cls-13{fill:#cf30ff;}.cls-14{fill:#c5ffb3;}.cls-15{fill:#05e9ff;}</style></defs><title>kerala2</title><path class="cls-1" d="M1015.51,985.27l-1,7.23v4.25l-1.87,1.5-2.25,1.49-2.74-1.74-3.37-1.88-2.5.25-2,2.12,1.12,2.38.87,4.74,2.75,2V1011l-4.49.75-1.75,6.12-2.12,5.36h-4V1027l1.5,1.49.63,3.62.87,2.5.75,2.12h-3.25l-5.61-1.62-3.25,2.62.63,3.24h-2.75l-2.74,3.5h-2.13s-10.35-8.93-18.78-12.11l-1.49-4.3-4.12-.94-.75-4.68a177.26,177.26,0,0,1-18-20.21l-11.89-16.34-3.22-4-.8-1.59,1.59-1.13,3.46,3.18.1-.88s-5-7.4-8.14-8.8,3.5,5.47,3.5,5.47l-1.59,1.69-11.7-16-2.66-2.9,6.22-3.51s2.48-3.93-1.87-2l-5.24,3.6L887.94,943.4l1.88-2.1,1.77-1.6s3.28,1.17,3.42,1.31,2.06,1.5,2.06,1.5,3.37,0,1.54-3.93a15.86,15.86,0,0,1-2.2.14c-.18-.09-1.59-.42-1.59-.42a16.48,16.48,0,0,0-2.2-.85l1.31-.55.73-1.34,2.18-.58h1.49l2.25-2h3.24l5.37.87s1.25-1.12,1.62-.87,3.12-2.12,2.25-3.24c-.58-.74-2.78-2.89-4.21-4.27-.74-.72-1.28-1.22-1.28-1.22l4.86,1,4.75,1.25,2.24-2.24v-1.13l2.12,2.37h1.63l1.24-.12,1.75,2.74v2.18l2.5,1.57h2.74l5.74-3,1.5,5.74,2,4.5,2.74,1.74s6.74-.75,9-3.24a27.54,27.54,0,0,1,4-3.75l2.74,4.75h4.25l1.25-3.5V932l2-5.61,1-3.25,2-1.25,1.24,3.5,5.25,1.5,6.24,2.74s3.74,2.5,3.74,3.25,6.49,3.24,6.49,3.24l5.24,1,4.87,3.24L999.79,946l-1.88,1.87-1.49.75-.25,2.74,2.62,5,3.37,3.74-.13,6.61,3.25,2.37,2.12,1.88s2.87,8.86,6.49,10Z" transform="translate(-505.37 -64.12)"/><path class="cls-2" d="M1035.39,767.7c-.22-.72-.14-1.05.09-.69S1035.63,767.67,1035.39,767.7Z" transform="translate(-505.37 -64.12)"/><path class="cls-3" d="M1013.26,922.37v3.37l-2.24,1.88-3.5,5.24-2.24,4.36-2.62,3.12-4.87-3.24-5.24-1s-6.49-2.49-6.49-3.24-3.74-3.25-3.74-3.25l-6.24-2.74-5.25-1.5-1.24-3.5-2,1.25-1,3.25-2,5.61v3.12l-1.25,3.5H959.1l-2.74-4.75a27.54,27.54,0,0,0-4,3.75c-2.25,2.49-9,3.24-9,3.24l-2.74-1.74-2-4.5-1.5-5.74-5.74,3h-2.74l-2.5-1.57v-2.18l-1.75-2.74-1.24.12h-1.63l-2.12-2.37v1.13l-2.24,2.24-4.75-1.25-4.86-1s.54.5,1.28,1.22c1.43,1.38,3.63,3.53,4.21,4.27.87,1.12-1.87,3.49-2.25,3.24s-1.62.87-1.62.87l-5.37-.87h-3.24l-2.25,2h-1.49l-2.18.58-.73,1.34-1.31.55h0l-4.73,3.09-5.94-7.4,3.09-.7,1.21-2.43,1.31-.14-.65-2.53s-2,1.59-2.06,1.78a24.3,24.3,0,0,1-3.37.79l-1.26,1.45-10.86-12.68-5.71.24-5.33-7.16.32-4.07-3.32-4,.14-16.75-11.37-20.45.13-3.62,1.37,1,.12,3,1.62,3.25,3.5,3.37.5,3.62,2.74,5.24,1.63,2.49,1.12,2.12,1.87.5.87-3.62-3.12-.24-1.24-3.12L852.75,875l-.84-3.19-3.65-1.87-.22-2.46-.87-2.37.25-1.88.87,1,2,2.44s1.12.75.62-1.56L849,863.22l-.25-1.12.25-1.62a2.82,2.82,0,0,0-.39-.61H856l4.87,3,1.74,3.12,3.37-1.12,3.87-2.75,6.24-.37,4.24-1.86,1.5-2.14,2.37-1,3.25.62.5-2.25,2.2,1.39.79.5,1.37.86v3.37l-2.49,2.62L889,866l-.5,4.87,1.63,1.87a16.19,16.19,0,0,1,3.12-.63c1,0,5,.63,5,.63l2.62,2.74h4l4.24-.87,1.13-3.24s-2.12-1.38-1-3a10.33,10.33,0,0,1,3.37-2.74l3.37.62,4.49,1.12,2.37,1.5,3.87-1,2-3.87,3.24-2.37h3.37l3.62.25,3,.63,3,2.37,2.87-.88v-2.12l-2.12-2.37-2.12-1-.13-2.12,3.12,1.12,4.87,3,6.24,2.12,7,.87,6,.5s3.36,6,15.84,8.86l4.37-.12,4.37,1.37,5.11,1.37,1.5.63-4,4.49-3.74,1.37-1.38,4.37,3.12,9.11,3,5.86,4.86,3.37,1.75,2.62.13,1.75s3.49,5.24,3.86,6.24,2,.63,2,.63l1.75,2.37Z" transform="translate(-505.37 -64.12)"/><path class="cls-4" d="M1020,833l-1.5,5.74-.37,4.24-2.62,3.74.37,10.61-2.87,1.75-.5,1.74-3.74,2.37-6.36,7.12-.63,5.74-1.5-.63-5.11-1.37-4.37-1.37-4.37.12C974,870,970.59,864,970.59,864l-6-.5-7-.87-6.24-2.12-4.87-3-3.12-1.12.13,2.12,2.12,1,2.12,2.37V864l-2.87.88-3-2.37-3-.63-3.62-.25H931.9L928.66,864l-2,3.87-3.87,1-2.37-1.5-4.49-1.12-3.37-.62a10.33,10.33,0,0,0-3.37,2.74c-1.12,1.62,1,3,1,3l-1.13,3.24-4.24.87h-4l-2.62-2.74s-4-.63-5-.63a16.19,16.19,0,0,0-3.12.63l-1.63-1.87L889,866l.88-2.12,2.49-2.62v-3.37l-.93-6.37-2.81-4.86-4.49-2.44-2.81-4.3L885,839l.19-6.92,4.68-2.44-3.09-2.05-4-3.94-.56-5.05-4.12-2.43-6.37-2.06-4.49-1.87-3.56,3.93-3.74.18-2.25,2.44-4.67.18-2.81-.18-1.64-.19v-3.74l1.82-1.69,3.37-.93,2.25-1.88-2.25-2.62v-4.11l-.18-1.5,2.06-1.87,1.12-1.69h15l1.31-6.17L877,790.1l4.5-2.06,4.68-5,6.17,1.49,1.88,2.44,3.55,6,4.12-6.18,2.43.94,1.87,4.3,2.25,2.62,5.24.19,4.87-1.5,4.68-1.12,3,.56,6-.94,4.12,3.75,3.37,3.74,4.12.94,2.24-4.31,1.31-1.68,4.87-.19h10.11l1.68,3v4.5l2.44,1.87,1.49-2.25,1.69-4.12,5.8-3.36,5.24-.38,6.74.19,2.62-1.5,1.87-2.25,4.5-2.62,3-.18,3.18,2.8,1.13,4.68,2.43,4.31,1.87,2.81,2.81,3v3l-.94,2.43-1.68,2.25.56,3.74v4.49l-1.31,3v3.93l3.37,1.31,4.3.37,3.19,2.44Z" transform="translate(-505.37 -64.12)"/><path class="cls-5" d="M955.42,780.55v7.12l-2.24,1.68-4.68,2.43-2.44,4.12-2.24,4.31-4.12-.94-3.37-3.74-4.12-3.75-6,.94-3-.56-4.68,1.12-4.87,1.5-5.24-.19L906.19,792l-1.87-4.3-2.43-.94-4.12,6.18-3.55-6-1.88-2.44L886.17,783l-4.68,5L877,790.1l-3.93,2.25-1.31,6.17h-15l-1.12,1.69V795.9l-1.88-3,1.88-5.06-1.88-7.48-5.14-3.47,1.21-1.12.66-2.15-1.41-1.78-.74-2.43-1.13-1.78-2.52-2.25L840,765.3l-2.62,1.31-2.25.56-.94-1.22-.37-3.74s2.34-.94,2.62-4.59l-1.4-2.34L833.66,753l.28-7.12-1-1.4-.46-.75-.38-5.24-2.9-.75-1.4-1,.09-11.7s-1.4-3.09-1.5-3.46-1.12-2.71-1.12-2.71v-2.53l.28-1.59,1.5-1.5.65-2.81-2.43-1.4-.47-1.5.75-1.59,5.43,1.4,3.93,2.06,4.49-1.73,3.56-4.07,4.86-1.12h2.81l4.12-3,4.49,1.13-3.37,3,.94,2.62,2.43,2.25,2.25.93,1.5,2.81,4.3-1.87V706.8l3.18-3.74,5.62,2.81,3.93-3.93,3.93,3.93h5.24l6,2.06,2.81,1.31a31.14,31.14,0,0,1,3,1.68c.75.56,4.31-1.31,4.31-1.31l4.3,1.5,10.3,8.8,1.5,4.11L926,728.7l2.43,2.06s3.74-.75,4.49,0,3.56,3.93,3.56,3.93,4.49,9.55,2.62,13.11l2.25-.94,1.87.94,1.49,5.24-4.49,1.49-3.93,1.5-.56,3.75-1.47,6.55,1.84,7.48,4.5,4.5,6.36,1.87,4.68,1.5Z" transform="translate(-505.37 -64.12)"/><path class="cls-6" d="M1045.33,776.87V781l-3.49,5.12s-.38,4-3.87,4l-4.87,3-1.12,3.37-1.37,14.73-3.12,3.37-4.37,1.74-.87,5.25-2.75,2.87.5,8.61-1.68-1.56-3.19-2.44-4.3-.37-3.37-1.31v-3.93l1.31-3v-4.49l-.56-3.74,1.68-2.25.94-2.43v-3l-2.81-3-1.87-2.81-2.43-4.31-1.13-4.68-3.18-2.8-3,.18-4.5,2.62L990.05,792l-2.62,1.5-6.74-.19-5.24.38-5.8,3.36L968,801.14l-1.49,2.25L964,801.52V797l-1.68-3H952.24l-4.87.19-1.31,1.68,2.44-4.12,4.68-2.43,2.24-1.68v-7.12l-3.74,1.13-4.68-1.5-6.36-1.87-4.5-4.5-1.84-7.48,1.47-6.55.56-3.75,3.93-1.5,4.49-1.49-1.49-5.24-1.87-.94-2.25.94c1.87-3.56-2.62-13.11-2.62-13.11s-2.81-3.18-3.56-3.93-4.49,0-4.49,0L926,728.7,921.36,724l-1.5-4.11-10.3-8.8-4.3-1.5s-3.56,1.87-4.31,1.31a31.14,31.14,0,0,0-3-1.68l-2.81-1.31-6-2.06h-5.24L880,701.94V692l1.5-2.25h9v-4.12l3.18-1.5,3-2.43v-3.18s.93-2.43,1.5-2.43,5.8-.57,6.92,0,2.25-1.32,2.25-1.32,3.18-2.62,2.24-2.43-1.31-4.3-1.31-4.3L912,666l5.61-.94,3.19,2.25,4.67-.75-8.61-4.31-4.68-3.18L902.73,652s-6.64-4.68-15.25-11.05l-4.68-3.36-1.13-3.65,4.68-7,4.12-3.19,1.87-5.42.94-5.25h9.45l3.46-.93,5.06.93,3.56-2.8h4.67l5.06,2.24a50.79,50.79,0,0,0,5.05.94c.94,0,2.44-.09,2.44-.09l7.67,8s5.62.47,6.08.47a27.1,27.1,0,0,1,3.56,1.5l1.78.84,3.55-1.69,4.59.1,2-3,4.58-.93,2.25-1.69.84-5,1.59-3.46s4-3.65,12.08-6.08l3.36-1.31,4.31-3.09,4-2.53,8.9-.09,2.71,2.8,1.5,3.37.75,3.75,2.24,4.4,2.81,4.77.47,4.58,2.62,1.41,2.71,1.4v4.4l-1.09,5.15-2.62,9.36-1.12,2.87h-6.49L1004,645a4.23,4.23,0,0,0-2.12,4c.23,2.51-.28,2.11-.37,2,.15.29,3,5.64,6.11,6.85s4.12,5.24,4.12,5.24l.62,5.75,1.62,4.11,3.5,2.12s.37,4.25-1.38,4.37l-4.36,3.87s-10.11,9.61-4.25,17.1l-1,4.36v2.62l.88,3.25,3.12,1.37.75,1.87-1.5,2.5-3,2.62.13,2.62-.87,4.12-3.62,8.73-1.38,6.74-1,2.62-2.38,4.62-1.49,4,.12,3.87h6l3.37,3.75,3,2.74,5.49,1.12H1019l9.52-6.24v4.62l2.24,2.12,3.37-5.24.75-.25v8.74a1.58,1.58,0,0,0,.54.06,11.77,11.77,0,0,0,4.95,5.93Z" transform="translate(-505.37 -64.12)"/><path class="cls-7" d="M925.47,666.56l-4.67.75-3.19-2.25L912,666l-3.75,2.06s.38,4.49,1.31,4.3-2.24,2.43-2.24,2.43-1.13,1.88-2.25,1.32-6.36,0-6.92,0-1.5,2.43-1.5,2.43v3.18l-3,2.43-3.18,1.5v4.12h-9L880,692v9.92l-3.93,3.93-5.62-2.81-3.18,3.74v3.56l-4.3,1.87-1.5-2.81-2.25-.93-2.43-2.25-.94-2.62,3.37-3-4.49-1.13-4.12,3h-2.81l-4.86,1.12-3.56,4.07-4.49,1.73L831,707.36l-5.43-1.4-.56-4.59-.56-1.87L822,697.35l.1-3.18-6.93-5.34L815,686.4l-2-1.12-1.5-2.06.1,2.06-.94,1.21-1.4-1.12-4.59-5L802.4,677l.66-1.87,2-1.78-1.4-3.47-.94-3.27.28-2.81L800,661l-.28-5.43-4.4-3.74-1.12-2.06V646l-1.78-1.78-.66-2.71-.75-2.25-1.87-2.34-1.31-1.5-1.21-2.24s.09-2.06.37-2.16,5.24,1.6,5.24,1.6l5.43,2.62L803,639s5.15,3.56,4.87,3.65a12.41,12.41,0,0,0,2.15.19l1.41-.37-.85-1.31-2.52-.75L801.28,635l-4.49-1.87-2.9-2.06,1.49-3,3-.18a7.72,7.72,0,0,1,4.68,2.52c.93,1.31,4.3,0,4.3,0s5.81,2.44,5.06,1.5-.75-4.11-.75-4.11l-1.13-5.44s4.12-2.8,5.25-2.8,6.17-1.88,6.55-2.44,6.36-3.55,6.36-3.55l2.25-4.5,5-1.12h5.8l9.92,2.25,7.68.93,3.56.56h4.3c.75,0,2.81-1.49,2.81-1.49V608s3.18,3,4.12,2.25,8.23,0,8.23,0L886,608l7.3,5-.94,5.25-1.87,5.42-4.12,3.19-4.68,7,1.13,3.65,4.68,3.36c8.61,6.37,15.25,11.05,15.25,11.05l9.45,7.11,4.68,3.18Z" transform="translate(-505.37 -64.12)"/><path class="cls-8" d="M931.46,611l.57,2.34s-1.5.09-2.44.09a50.79,50.79,0,0,1-5.05-.94l-5.06-2.24h-4.67l-3.56,2.8-5.06-.93-3.46.93h-9.45l-7.3-5-3.56,2.25s-7.3-.75-8.23,0-4.12-2.25-4.12-2.25v2.25s-2.06,1.49-2.81,1.49H863l-3.56-.56-7.68-.93L841.8,608H836l-5,1.12-2.25,4.5s-6,3-6.36,3.55-5.43,2.44-6.55,2.44-5.25,2.8-5.25,2.8l1.13,5.44s0,3.17.75,4.11-5.06-1.5-5.06-1.5-3.37,1.31-4.3,0a7.72,7.72,0,0,0-4.68-2.52l-1.22-2.62,1.69-3.37.37-1.78-1.5.75-1,1.87-2.8,1.5-1.78-2.53L790.24,620s-.85-1.12-.29-1.4,2.25-1,2.25-1l-1-1-4.3-.56L788,619.3l1.4,3.46-.09,3.46a16.75,16.75,0,0,1-1.22,3.09c-.37.37-3.18.56-3.18.56l-2.43.19s-.84.93-.84,1.22-2,.28-2,.28l-1.5-4.22-1-4.39-1.46-6.46-2.09-8.89-1.5-4.21-5.71-14.14-10.11-20.77s-.75-6.74-12.35-26.58l-2.62-5.25-1.22-1.45-.19-3.88-1.63-2.57-4.64-10a14,14,0,0,0-3.37-8.71s4.68-5.7,4.68-5.42,1.22-.66,1.22-.66l1.87.19-.09,4.21,1.87.28s.56,1.87.19,1.87-.84,2.34-.84,2.34l-.29,2.06.66,2.34a24.77,24.77,0,0,1,3.09,1.59,24.33,24.33,0,0,1-.56,4s-.08,2.29,1.22,3.24a2.17,2.17,0,0,0,.65.31l.56,1.22,1.87-.19.75-2.15-.09-2.9h3.65l1.31-1.31,6.92-.75,1.13-3.18,3.37-2.06,3.18,2.06,6-.19,4.49.56,6.18-1.68,4.3-5.24,2.43-1.88-.93-2.62V503H793l2.25,1.69,2.8,2.43,4.12,2.62,5.24.56,5.62,2.25s4.86.37,6.74-.56,4.86-2.62,4.86-2.62l3-1.31,3.93,2.43,5.61,1.5,4.31-1.5h4.49l1.31,2.06-2.43,2.81-.19,5-1.5,8-4.49,1.31-4.49,4.87,2.43,4.3-3.74,4.49v.94l3.56,3.74,1.87,4.31,2.43,5.24,3.65,5.24,3.84,2.81,5.8,3,4.49,4.5,5.24,2.24,4.31,1.31h4.49c4.12,10.86,7.49,12.17,7.49,12.17l5.8.93,4.31,1.69,4.12,1.87,6-1.87,7.68,1.68-3.37,4.68h4.31l4.86,1.5,5.43-3,5,1.87-.46,8.14a17.15,17.15,0,0,1,1.68,1.12,17.42,17.42,0,0,0,3.09.85l1.68-.94,3.56.47Z" transform="translate(-505.37 -64.12)"/><path class="cls-9" d="M937.45,498.19l-.56,9.64L935.3,513l-3.84,4.68-.37,3s1.87,4.59,1.87,5.71V530l-2.81,2.43h-10.1v9.27l5.71,1.78s.09,6.64-.1,6.92-2.43,3.93-2.71,4.12.65,7.21.65,7.21l-2.24,7.11s-.28,11.61-.28,11.89,3.55,6.55,3.55,6.55l.84,5.33-1.31,5.62-5-1.87-5.43,3-4.86-1.5h-4.31l3.37-4.68-7.68-1.68-6,1.87-4.12-1.87-4.31-1.69-5.8-.93s-3.37-1.31-7.49-12.17H868l-4.31-1.31-5.24-2.24-4.49-4.5-5.8-3-3.84-2.81-3.65-5.24-2.43-5.24-1.87-4.31-3.56-3.74v-.94l3.74-4.49-2.43-4.3,4.49-4.87,4.49-1.31,1.5-8,.19-5,2.43-2.81-1.31-2.06h-4.49l-4.31,1.5-5.61-1.5L827.58,508l-3,1.31s-3,1.68-4.86,2.62-6.74.56-6.74.56l-5.62-2.25-5.24-.56L798,507.08l-2.8-2.43L793,503H789v3.18l.93,2.62-2.43,1.88-4.3,5.24L777,517.56l-4.49-.56-6,.19-3.18-2.06L760,517.19,758,513.07,754,509l-2.44-6,1.87-3v-9.74l2.06-2.06,5.62.75,3.56,1.31,6-4.11,2.24-2.81,2.75-2.44,2.31-1.12,6.36-5.05,2.06,1.49,3,.75,3.37.19,3.93,2.62h2.81l2.25-3.18,3.18-2.25,3.37-1.49,5.05,1.49h2.44l.37-4.11-1.5-3.37,1.31-2.62.94-3,3.93-2.06,3-2.43-2.05-1.13h-4.5l-1.87-5.24-3.93-2.8H808.3v-5.24h6.55l3-4.31,3.94-3.74,7.3-1.5,2.24-2.81,1.69-5-2.44-8.24-1.49-4.12,1.31-2.24h10.67a22.17,22.17,0,0,0,3.36,1.21c.57,0,2.72-1.87,2.72-1.87l3.18-1.4,3.18.28,3.65,3,7.21-.46,3.37-1.31h5.61l4.5,1.77s10.2-2.71,14.41-7.11v-3.74l2.06-2.16,1.31,1.88,1.68,2.71,4.59.84v2.81h-2.15l.18,3.46L900,412,895,413.4l-.84,5.8s10.11,3.84,8.61,8.61l1.5,3.93-1.4,2.53-1.31,3,7.11,5.52,2.62.56,2-1.4-.56,4.49-.93,1.5-5.81-1.4L899,444.84s-5.8,1-6,3.09l-1.69,5.43-1.49,4-2.44,2.25-.65,5.71-1.87,2.24,1.21,1.6s9.36,7.86,29,9.45l3.65,1.59,4.11,2.81,3.47,4.4,2.15,2.8v3.37l.47,2.44s6.64-.94,7.39-.94S937.45,498.19,937.45,498.19Z" transform="translate(-505.37 -64.12)"/><path class="cls-10" d="M862,379.23v1.69l-1,4-.28,1.59-.28,3-2.72.65-1.21,4.4s-10.3,2.81-15.26,10.95l-.18,4.78H830.39l-1.31,2.24,1.49,4.12,2.44,8.24-1.69,5-2.24,2.81-7.3,1.5L817.84,438l-3,4.31H808.3v5.24h3.18l3.93,2.8,1.87,5.24h4.5l2.05,1.13-3,2.43-3.93,2.06-.94,3-1.31,2.62,1.5,3.37-.37,4.11h-2.44l-5.05-1.49-3.37,1.49-3.18,2.25-2.25,3.18h-2.81l-3.93-2.62-3.37-.19-3-.75-2.06-1.49L778,479.75l-2.31,1.12-2.75,2.44-2.24,2.81-6,4.11-3.56-1.31-5.62-.75-2.06,2.06V500l-1.87,3,2.44,6,3.93,4.12,2.06,4.12-1.13,3.18-6.92.75-1.31,1.31H747l-.66-2.9-2.06-3.09-1.59-1.22.19-9.26-1.59-.66-1.5-1.4-.47-1.5-.93-1.31-1.5.47L733,504.74l-2.72,2.62s-2.34.19-2-3.84l4.87-4.4,3-3.55,1.4-4.68.1-3.65s2.07-1.79,2.78-2.3c-.85.47-3.81,2-3.81,2l-.94,2-.56,3.84-.94,2.43-1.68,2s-2.06.84-2.9,1.12-3.46,1.31-3.46,1.31l-3-.18-.37-4.78L722,483.21l-1.69-7.67-1.77-4.77s.37-4.87,0-5.43-1.78-6.18-1.78-6.18L715.18,456l.09-7-2.9-6a45,45,0,0,1-.56-5.8c.09-1.5.09-3.18.09-3.18l-3.65-6.09,1-2.9s1.12-2.43,2-2.43a5,5,0,0,1,1.41.18l1.5,1.78,1,2.34.84-2.34L715,423s-.94-2.16-1.22-2.16a19.29,19.29,0,0,1-2.24-.84l6-3.37,3.74-3-4.87-3.37,1.31-5.62,7.68-5.61s6.74-1.69,7.86-2.06,6.36-4.68,6.36-4.68,3.37,2.24,4.5,2.24,8-1.68,8.61-2.24,7.67-3.37,7.67-3.37,2.25-3.18,3.37-3.18,3.93-.57,4.68,0,2.06-2.81,2.06-2.81-2.06-3.75-2.62-4.12a39.54,39.54,0,0,0-3.75-1.5l2.06-6,.38-4.86,1.31-4.12,5.61-2.62,4.12-5.43v-2.43l8.24-4.12.93-5.06,1.69-3,4.3.94,3.56-3.56.37.84,1.13,6.55-.75,3.37-.1,2.62h8.52l2.15,2.25h4.68l3.28,3.55,4.3-1.21,5.06,1.68,2.9,1.87s7.58.57,7.86.75-.28,2.9-.28,2.9l4.12,3.56,4,3.28s13.57,2.43,17.13,7Z" transform="translate(-505.37 -64.12)"/><path class="cls-11" d="M766.18,371.37l-2.06,6a39.54,39.54,0,0,1,3.75,1.5c.56.37,2.62,4.12,2.62,4.12s-1.31,3.37-2.06,2.81-3.56,0-4.68,0-3.37,3.18-3.37,3.18-7.11,2.81-7.67,3.37-7.49,2.24-8.61,2.24-4.5-2.24-4.5-2.24-5.24,4.3-6.36,4.68-7.86,2.06-7.86,2.06l-7.68,5.61-1.31,5.62,4.87,3.37-3.74,3-6,3.37-3.65,3.46-3.65-6.36,3-2.53,1.78-3.18,1.68-3-.93-.94-1.69,2.25-3.37,3.65-2,2.05-1.5-.65-1.12-5.43L698,406.66l-.93-4.78L695.24,400l-1.4-6.55-.56-3.65-1.5-1.59-.47-3.84-3.93-2.81-.94-4.58,1.22-2-3.46-6.64-2.9-2.15.09-4.22-2.9-4.39L677.08,354l-3.18-1.88-5.52-1.77-3-1-2.53-1.13-.47-2.81-1.31-5.24L659.3,336l-2.24-3.47-.19-3.55,2.24-.47-2.52-2.25-2.15,1.13-.66-2.53-1.5-5.62s-.7-9.85-10.6-20.27h2.83l.94-3.78-1.89-4.12,1-3.93,2.63,2.43,2.24,5.06-1.31,2.24,1.31,3.19,2.81,2.62,6.36.93,1.13-2.43v-3.37l5.42-4.87,6.37-3.93,3.56-3.74s4.3-5.8,4.3-5.24,6.93,5.05,6.93,5.05l4.3-1.31,1.87-3.74,3.37,1.68,3.18,2.62-1.68,3.75,3.18,3.37,2.25,2.8,3,1.5,3.84,3.37,5.9,2.43,4.68-1.49,3.55.56-3,4.12.56,6.36,2.62,5.43.75,5.05,3.74,1.69s3.75-1.87,4.87,0a14.74,14.74,0,0,0,3,3.37l2.06,5.42,2.06,2.63s4.31,1.31,4.68,2.43,7.25,5.24,7.25,5.24,1.92-2.62,2.86-2.25,6.36-.93,6.36-.93h3.93V345l2.62,3.56,3.56,1.31,6,4.49-4.12,5.43-5.61,2.62-1.31,4.12Z" transform="translate(-505.37 -64.12)"/><polygon class="cls-2" points="206.16 355.92 203.25 359.01 202.51 359.38 206.16 355.92"/><path class="cls-12" d="M838.81,314.38l-9.08.65-2.15,5.15a8.61,8.61,0,0,1-8.89,5.24l-3.18-.47-5,3.09-2.8-.65-2.16-2.06-8.23.46s-.1,2.34-.1,2.81a48.4,48.4,0,0,0,2.06,4.78l-.93,2.71L796.69,338l-.37-.84-3.56,3.56-4.3-.94-1.69,3-.93,5.06-8.24,4.12v2.43l-6-4.49-3.56-1.31L765.43,345v-5.8H761.5s-5.43,1.31-6.36.93-2.86,2.25-2.86,2.25-6.87-4.12-7.25-5.24-4.68-2.43-4.68-2.43l-2.06-2.63-2.06-5.42a14.74,14.74,0,0,1-3-3.37c-1.12-1.87-4.87,0-4.87,0l-3.74-1.69-.75-5.05-2.62-5.43-.56-6.36,3-4.12-3.55-.56-4.68,1.49-5.9-2.43-3.84-3.37-3-1.5-2.25-2.8-3.18-3.37,1.68-3.75-3.18-2.62L692.43,280l1.87-1.69,2.25-2.8,1.87-3v-2.43c6-3.37,16.47-2.25,16.47-2.25h7.24l.81-3.55-.81-3.56,1.38-1.5,3.18-3.37-3-5.24L722.13,248h7.49l5.49.81,4.43,1.56s4.18-1.12,5.43,0,11.23-3.87,11.23-3.87,8.73-2.24,10-5.24l2.75.75v10.23s-1.81,6.37,1.31,10.49a18.65,18.65,0,0,1,1.38,1.91c-.07,0-1.22-1.41-1.37-1.58l1.11,4.22a18.1,18.1,0,0,1,1.81,0,41.62,41.62,0,0,0,3.56-2.81,6.66,6.66,0,0,1,2.62-1.68c1.56-.5,5.11.68,5.11.68l3,1.38a29.3,29.3,0,0,1,2.25,3.24c0,.31.87,4.62.87,4.62a5.63,5.63,0,0,0,2.49,3.74,7.21,7.21,0,0,0,5.31.88s4.68-4.31,6.61.43l3.43,4.37,2,3.62s1.25,3.31,3.81,4.62a9.08,9.08,0,0,0,4.36,1.18,7,7,0,0,0,3.93-.87c2.06-1.13,8.18-2.5,8.18-2.5h3.55l1.56.88.38,2-1.25,3.81a6.33,6.33,0,0,0-.93,4.62,25.86,25.86,0,0,0,1.49,5l3.37,1.31.94.87v3.87S841.15,313.16,838.81,314.38Z" transform="translate(-505.37 -64.12)"/><path class="cls-13" d="M723.51,259.25l-1.38,1.5.81,3.56-.81,3.55h-7.24s-10.48-1.12-16.47,2.25v2.43l-1.87,3-2.25,2.8L692.43,280l-1.87,3.74-4.3,1.31s-6.93-4.49-6.93-5.05-4.3,5.24-4.3,5.24L671.47,289l-6.37,3.93-5.42,4.87v3.37l-1.13,2.43-6.36-.93-2.81-2.62-1.31-3.19,1.31-2.24-2.24-5.06-2.63-2.43-1,3.93,1.89,4.12-.94,3.78h-2.84a55.94,55.94,0,0,0-9.88-8.18l-.38-3.09,1.41-1.87,2.46-3.12-2.37-1.25-2.37,1.75-.88,2-1.24,1-1.38-2,.25-2.12.75-1.5L627,279a12.37,12.37,0,0,0-.74,3c-.38,2.25-2.5.13-2.5.13l-1.5-2.25.38-1.75-2.5-1.12-2.49-2.62s.12-8.36-8-7.36c0,0-5.12-6.49-10.23-10.11l-1.63-1.75-1.24-3.62.12-.74.38-1.25s4.74.61,4.74.47-4.21-4.22-4.21-4.22l-1.46-.42-1.77-.42-.24-2.06-3.88-3.69L587.11,236l-1.25-2.25.63-1,3.12.37,2.74,1.12,1.75.5,1.12-.75-2.12-2,.75-2.37,4.37-2-1-.75a7.88,7.88,0,0,0-2.5-.5,10.45,10.45,0,0,0-2.62,1.87l-.25,1.16a7.18,7.18,0,0,0-1.21.47c-.53.28-2.37.28-2.72.53s-2.74,1.93-2.74,1.93l-2,.84-1.46-.56-2.06-3.27-1-.57v-2.24s-.66-1.5-2.62,1.78l1,.65-.66,1.59-1.12.1h-.94v2.15l-.84-.19s-2.9-3.37-5-12.17l1.78.38,1.68.84,1.22.66,1.16-.82c-.24.08-1.42.16-4.2-4.14l1.92-2.53-.75-5.24-.75-3.37-1.87-3-.94-4.49,3.56-3.18,3-3.37,4.87-2.81,4.3-.93h4.12V184l1.31-6.17,3.93,2.24,3-2.62,5.61,1.69,4.31-2.81,4.3-1.31,6.18-2.43h15l2.44,1.87L637.9,179s10.61,18,13.35,19.72,4.5,3,4.5,3l7.11,1a8.33,8.33,0,0,1,7.36,6.49c1.62,6.24,4.87,3.5,4.87,3.5s2.62-1.5,2.62-.88,1.75,2.25,1.75,2.25l2.74,4.12s.13,1.37,1.12,1.49a10.38,10.38,0,0,0,3.37-.87l2.37-.37,1.75.74s.75,1.75,3.37,1.5,6.24-1,6.24-1l.75,2.12v3.75l1.75,3.24v4.62l.87,2.5,4.12,3.37s3.12,3.36,2.62,5.49l.87.62s5.37,1.75,5.74,1.5,5,1.12,5,1.12l1.56,2.62,3,5.24Z" transform="translate(-505.37 -64.12)"/><path class="cls-14" d="M622.18,172v.57h-5.93L610.07,175l-4.3,1.31-4.31,2.81-5.61-1.69-3,2.62-3.93-2.24L587.61,184v4.5h-4.12l-4.3.93-4.87,2.81-3,3.37-3.56,3.18.94,4.49,1.87,3,.75,3.37.75,5.24-1.92,2.53c-2.08-3.23-5.06-8.91-9.22-18.91l-.75-5-1.87-1.87-.38-2.9,1.59-1.13-.56-1.31s-4.4.38-6.27-8c0,0-6.92-20.12-9.92-23.21l-2-5.43-1.22-2.15-2.43-.85-.75-1.4-.85-2.53.29-2.34-2.81-5.61-1.41-2.72.28-2.24.57-2.43-.94-1.32-1.5,1.88-1.31-.56-2-2.81-2.06-4.87-1.12-4.4-.94-3.84-1.69-2.9-4.67-9-1.5-4.87-1.13-5.71-2.52-3.65-2.9-5.89-1.41-4.5L506,73.57l1.22-1.17.84-2,.75-1.36h1.26l1.41.24,1.82.23.56-.93h.94V66.83l1.59-.47h3.37l1.4-.47h2.15l.85,1.22,2.34.19,2.15-1.41,1.5-1.21,1.77.56,1.31,2-1.87,2.62-2.43,1.5-.19,2.9,1.69,2.25L531,78.9l.78,1h1l1.31.44h.81l1.43-.56,1.63-.88,1.68-.56a13.52,13.52,0,0,1,1.75.44c.18.12,1.93,1.56,1.93,1.56l-.44,3.43-.18,1.75.93,1.68,1,1.06,1.87,1.31,1.19.63,2.25-.57V87.54l-.38-2.74.94-1.19.75-.5,1.18.31,1.56.94,1.19,2.56,1.43.81L559,88.79l3.56-.87.69,1.25a1.48,1.48,0,0,1,.68,1.06c0,.62-.37,3.43-.37,3.43a13.49,13.49,0,0,1-1.69,1.5c-.18,0,2.31,4.43,2.69,4.18l2.18,1,1.56-.31,1.69-.93L572,98.9l1.56.5.5.19.31,2.12-.31,2v1.69l2.06,1.81v.43l1.87,2s.94.44,1.12.56a14.71,14.71,0,0,0,2.56-1.68l2.5-.75,2.12-1.81,1.12-1.69,1.75-2.3a3.13,3.13,0,0,1,.93-.19,12.4,12.4,0,0,1,1.31,1.25l.82.75,1.56,1.24.74,1.69,4,.62.68,2.12-1.74,1.06s-5.12-.06-5.37,0l-2.49.63-.32,3.06-.37,1.93.37,2a7.73,7.73,0,0,0,2.25,3.18c1.37.87,2.5.62,4.06.87s2.18,2.62,2.18,2.62l.19,1.13.75.62h2.74a2.76,2.76,0,0,1,1.5,3l.37,2.06.81,2h2.62l2.44-1,.37-2.24.56-2.13,3.37-1.12,2.31-.25L619,127l1.06,1.43.31,3.68-.38,3.12s-.06,1-.31,1h-4.93l-3.8,1.87-.69,1.94-.5,4.68-.12,2.74,1.43,2.44,3.56,2.49,3.18,1.31.75,8.55.19,3.31.18,2,.88,1.13,1.74,2.06Z" transform="translate(-505.37 -64.12)"/><path class="cls-15" d="M892.34,857.86,891,857l-.79-.5-2.2-1.39-.5,2.25-3.25-.62-2.37,1-1.5,2.14-4.24,1.86-6.24.37L866,864.85,862.64,866l-1.74-3.12-4.87-3h-7.44l-.94-.93,1.17-2s4.36-1.54.24-2.57-2.9,2.52-2.9,2.52l.42,3-.75.75s.09,1.68-2-3.93l-3.43-10.61-1-6.74-1.62-2.87s-3-6.24-3.12,1.87l2.75,4.12,1.81,4.68,2.87,8.48,1.06,2.06-.07,2.31-1.06.75L840.87,859l-.44-3.06-4.18-10.66-3.12-4.87-.81-3.21L830,833l-4.24-6.89L813,786.54l-1.87-7.3s-.75-2.06-.75-12.35l-1.24-5.8L807.36,739l-1.62-5.68L805.62,719l-1.5-3.49L803,713.23l-1.25-3.62v-9.36l-1.62-4-1.13-5-2.24-3.5-.13-4.12-1.37-1.87-.38-3,2.37-.88,2.38,1.25s.37,6.37,6.24,8.74l2.15,1.59.37,2.53-1,.37-2.71.28-.94.84-1.12-.56-.66-1.4-.93.18v1.5l.93,2.06.1,1.5.93,2.34,1.31.28.1-3.56.37-.93,1.5-.66.47,2.72v3.46l.65,2-1.59,1.5-1.68.75.37,3s1.22,8,2.06,1.4l1-2,1.22-.09.46-5.15-.74-2.06s-.28-3,0-3.08a12.11,12.11,0,0,1,2.43.74l1.22,2.34-.28,5.43,1.31,1.78s.18,3.18.18,3.46.19,6.46.19,6.46l1.4,5.52,1.59,4,.29,2.9s.65,2.9.65,3.18-.56,2.53-.56,2.53l-.09,1.68.84.66,1.5-.56.46-1.69.19-3.74-.65-3.65-1-4.31-.85-6.08L816,713.64l-.28-3.84-.84-2.25-.56-2.34-.56-4.12s.84-2,3.27-.37l.75,3.56v2.52s-.93,1.31,1.78,2.81l2.43,2.25,3.09.65-.37,1.41-2,.93-.93,1.41.56,3.93,1.49,1.49-.74,8.05-.1,3.37-.47,2v2.43l1.78,2.71,3.18,2.25.57,1.78-1.22,6.36-2.25,6.84-1.31,6L820.93,767l-1.4,1.69v5.05l.94,1,4,1.59,3.18,1.87,6.55-.47.94,1.88v1.21l1.12.94,2.44-.09.09-2.72.75-.19,2.9-.46,1,1.12,1.22.28,2.8.94,1-1.13.1-2.62,5.14,3.47,1.88,7.48-1.88,5.06,1.88,3v4.31l-2.06,1.87.18,1.5v4.11l2.25,2.62-2.25,1.88-3.37.93-1.82,1.69v3.74l1.64.19,2.81.18,4.67-.18L860,816.3l3.74-.18,3.56-3.93,4.49,1.87,6.37,2.06,4.12,2.43.56,5.05,4,3.94,3.09,2.05L885.23,832,885,839l-3.74.94,2.81,4.3,4.49,2.44,2.81,4.86Z" transform="translate(-505.37 -64.12)"/><path class="cls-15" d="M799.13,673.55v1.24h-3.19l-.93-3.36s-3.68-10.36-9-17.1l-.44-2.37s.32-1.75.5-1.75a26.19,26.19,0,0,1,2.38,1.44l1.12.37.43-1.81L787.83,649l-.75-4a26.78,26.78,0,0,0-3.3-6.24l-2.37-2.87.87-1.93a4.51,4.51,0,0,1,4.37,1.49l2.68,4.31,1.56,3.43s-.06,2.37,0,2.62,1.19,3.5,1.19,3.5L792,651.9l4.12,3.8,1.43,2.19v2.43l1.07,1.56-.82,4.68-.81,2.06.69,2.74Z" transform="translate(-505.37 -64.12)"/><path class="cls-2" d="M917.18,926.49" transform="translate(-505.37 -64.12)"/><path class="cls-2" d="M804.12,715.48" transform="translate(-505.37 -64.12)"/><path class="cls-2" d="M795.38,628.09a6.64,6.64,0,0,1,3-.18" transform="translate(-505.37 -64.12)"/></svg>