<svg id="Layer_1" data-name="Layer 1" xmlns="http://www.w3.org/2000/svg" viewBox="0 0 511.97 929.03"><defs><style>.cls-1{fill:none;stroke:#000;stroke-miterlimit:10;}</style></defs><title>1cde638484f148b70bcdadf0ecccbdf0</title><path class="cls-1" d="M728.87,211.29v.53h-5.61l-5.85,2.31-4.08,1.24L709.25,218l-5.32-1.6-2.83,2.48-3.73-2.12-1.24,5.85v4.25h-3.9l-4.08.89-4.61,2.66-2.83,3.19-3.37,3,.89,4.26,1.77,2.84.71,3.19.71,5-1.82,2.38c-2-3.06-4.79-8.44-8.73-17.89l-.71-4.7-1.77-1.77-.36-2.75,1.51-1.07-.53-1.24s-4.17.36-5.94-7.53c0,0-6.56-19.06-9.4-22l-1.86-5.14-1.15-2-2.31-.79-.71-1.33-.79-2.4.26-2.21-2.66-5.32-1.33-2.57.27-2.13.53-2.3-.89-1.25-1.41,1.78-1.25-.53-1.86-2.66-2-4.61-1.06-4.17-.89-3.63L633,151.28l-4.44-8.51-1.41-4.61-1.07-5.41-2.39-3.46L621,123.71l-1.33-4.26-.8-1.41,1.16-1.11.79-1.86.71-1.29h1.2L624,114l1.73.22.53-.88h.89v-1.69l1.5-.44h3.19l1.33-.44h2l.8,1.15,2.22.18,2-1.33,1.41-1.16,1.69.54,1.24,1.86-1.77,2.48-2.31,1.42-.18,2.75,1.6,2.12.53,2.31.74,1h1l1.24.42h.77l1.35-.53,1.54-.83,1.6-.53a13.1,13.1,0,0,1,1.65.41c.18.12,1.83,1.48,1.83,1.48l-.41,3.25-.18,1.65.89,1.6.94,1,1.78,1.24,1.12.59,2.13-.53v-2l-.36-2.6.89-1.12.71-.47,1.12.29,1.48.89,1.12,2.42,1.36.77,2.31,1,3.36-.83.65,1.18a1.4,1.4,0,0,1,.65,1c0,.6-.35,3.26-.35,3.26a12.73,12.73,0,0,1-1.6,1.41c-.17,0,2.19,4.2,2.55,4l2.06.95,1.48-.3,1.6-.88,1.83-.18,1.48.47.47.18.29,2-.29,1.89v1.6l2,1.71v.41l1.77,1.89s.89.42,1.07.54a15.15,15.15,0,0,0,2.42-1.6l2.36-.71,2-1.71,1.07-1.6,1.65-2.18a2.87,2.87,0,0,1,.89-.18,13.19,13.19,0,0,1,1.24,1.18l.77.71,1.47,1.18.71,1.6,3.78.59.65,2-1.65,1s-4.85-.06-5.08,0l-2.37.59-.29,2.9-.36,1.83.36,1.89a7.27,7.27,0,0,0,2.13,3c1.3.82,2.36.59,3.84.82s2.07,2.48,2.07,2.48l.17,1.07.71.59h2.6a2.62,2.62,0,0,1,1.42,2.84L711,173l.76,1.89h2.49l2.3-.95.36-2.13.53-2,3.19-1.06,2.18-.24,3.08.18,1,1.36.3,3.49-.36,2.95s-.06,1-.29,1h-4.67l-3.61,1.77-.65,1.83-.47,4.44-.12,2.6,1.36,2.3,3.37,2.36,3,1.25.71,8.09.18,3.13.18,1.9.83,1.06,1.65,2Z" transform="translate(-618.2 -109.05)"/><path class="cls-1" d="M1120.25,775.48c-.21-.67-.13-1,.08-.64S1120.48,775.46,1120.25,775.48Z" transform="translate(-618.2 -109.05)"/><path class="cls-1" d="M824.85,293.91l-1.31,1.42.77,3.37-.77,3.36h-6.85s-9.93-1.06-15.6,2.13v2.31l-1.77,2.83L797.19,312l-1.78,1.6-1.77,3.54-4.08,1.24s-6.56-4.25-6.56-4.78-4.07,5-4.07,5l-3.37,3.55-6,3.72-5.14,4.61v3.19l-1.06,2.31-6-.89-2.66-2.48-1.24-3,1.24-2.12-2.13-4.79L750,320.32l-.9,3.73,1.78,3.9-.88,3.58h-2.69a53,53,0,0,0-9.37-7.75l-.35-2.92,1.33-1.78,2.33-2.95L739,315l-2.25,1.65-.83,1.89-1.18.95-1.3-1.89.24-2,.71-1.42-.95-1.54a11.93,11.93,0,0,0-.71,2.84c-.35,2.13-2.36.12-2.36.12L729,313.41l.35-1.65L727,310.69l-2.36-2.48s.11-7.92-7.57-7c0,0-4.84-6.15-9.69-9.58L705.82,290l-1.18-3.43.12-.71.35-1.18s4.5.58,4.5.44-4-4-4-4l-1.38-.4-1.68-.39-.22-2-3.68-3.51-3-3-1.18-2.12.59-.95,2.95.36,2.6,1.06,1.66.47,1.06-.71-2-1.89.71-2.24,4.14-1.89-.95-.71a7.46,7.46,0,0,0-2.36-.48,9.63,9.63,0,0,0-2.48,1.78l-.24,1.09a7,7,0,0,0-1.15.44c-.5.27-2.25.27-2.57.51l-2.6,1.83-1.89.79-1.39-.53-1.95-3.1-1-.53V263s-.62-1.42-2.48,1.69l1,.62-.63,1.5-1.06.09h-.89v2l-.79-.18s-2.75-3.19-4.7-11.52l1.68.35,1.6.8,1.15.62,1.13-.79c-.15.07-1.24.38-4-3.91h0l1.82-2.38-.71-5-.71-3.19-1.77-2.84-.89-4.26,3.37-3,2.83-3.19,4.61-2.66,4.08-.89h3.9v-4.25l1.24-5.85,3.73,2.12,2.83-2.48,5.32,1.6,4.08-2.66,4.08-1.24,5.85-2.31h14.18l2.31,1.78,4,4.31s10,17,12.65,18.67,4.26,2.84,4.26,2.84l6.73,1a7.89,7.89,0,0,1,7,6.14c1.53,5.91,4.61,3.31,4.61,3.31s2.48-1.42,2.48-.83,1.65,2.13,1.65,2.13l2.6,3.9s.12,1.3,1.07,1.42a9.93,9.93,0,0,0,3.19-.83l2.24-.35,1.66.71s.71,1.65,3.19,1.42,5.91-.95,5.91-.95l.71,2V262l1.65,3.07v4.37l.83,2.37,3.9,3.19s3,3.19,2.48,5.2l.83.59s5.08,1.65,5.44,1.42,4.72,1.06,4.72,1.06l1.48,2.48,2.84,5Z" transform="translate(-618.2 -109.05)"/><path class="cls-1" d="M865.27,400.11l-1.95,5.67a34.94,34.94,0,0,1,3.54,1.42,27.25,27.25,0,0,1,2.48,3.9s-1.24,3.19-2,2.66-3.36,0-4.43,0-3.19,3-3.19,3S853,419.43,852.5,420s-7.09,2.13-8.15,2.13-4.26-2.13-4.26-2.13-5,4.08-6,4.43-7.44,1.95-7.44,1.95l-7.27,5.32L818.11,437l4.61,3.19L819.17,443l-5.67,3.19L810,449.48l-3.46-6,2.84-2.39,1.68-3,1.6-2.84a8.93,8.93,0,0,0,2.48-.27c.36-.26,3-1.33,3-1.33l-.62-1.5-5.77,2.21-1.59,2.13L807,439.91l-1.86,1.95-1.42-.62-1.07-5.14-2-2.58-.88-4.52-1.69-1.77-1.33-6.2-.53-3.46-1.42-1.51-.44-3.63-3.72-2.66-.89-4.35,1.15-1.86-3.28-6.29-2.74-2,.08-4-2.74-4.17-1.33-3.45-3-1.78-5.23-1.68-2.83-1-2.4-1.07-.44-2.66-1.24-5L764,366.6l-2.12-3.28-.18-3.37,2.13-.44-2.4-2.13-2,1.06-.62-2.39-1.41-5.32s-.67-9.33-10-19.2H750l.88-3.58-1.78-3.9.9-3.73,2.48,2.31,2.13,4.79-1.24,2.12,1.24,3L757.3,335l6,.89,1.06-2.31v-3.19l5.14-4.61,6-3.72,3.37-3.55s4.07-5.49,4.07-5,6.56,4.78,6.56,4.78l4.08-1.24,1.77-3.54,3.2,1.59,3,2.49-1.6,3.54,3,3.19,2.13,2.66,2.83,1.42,3.64,3.19,5.58,2.31,4.43-1.42,3.37.53-2.83,3.9.53,6,2.48,5.14.71,4.79,3.54,1.59s3.55-1.77,4.61,0a14.13,14.13,0,0,0,2.84,3.19l2,5.14,1.95,2.49s4.08,1.24,4.43,2.3,6.87,5,6.87,5,1.82-2.49,2.71-2.13,6-.89,6-.89h3.72v5.5l2.48,3.37,3.37,1.24,5.67,4.25-3.9,5.14-5.32,2.49-1.24,3.9Z" transform="translate(-618.2 -109.05)"/><polygon class="cls-1" points="191.84 340.43 195.3 337.15 192.55 340.08 191.84 340.43"/><path class="cls-1" d="M934.06,346.12l-8.6.62-2,4.88a8.16,8.16,0,0,1-8.42,5l-3-.44-4.69,2.92-2.66-.62-2-1.95-7.8.45s-.09,2.21-.09,2.65a45.42,45.42,0,0,0,1.95,4.53l-.89,2.57-1.59,1.77-.36-.8L890.44,371l-4.08-.89L884.77,373l-.89,4.79-7.8,3.9V384l-5.67-4.25L867,378.48l-2.48-3.37v-5.5h-3.72s-5.15,1.24-6,.89-2.71,2.13-2.71,2.13-6.51-3.91-6.87-5-4.43-2.3-4.43-2.3l-1.95-2.49-2-5.14a14.13,14.13,0,0,1-2.84-3.19c-1.06-1.77-4.61,0-4.61,0L825.91,353l-.71-4.79L822.72,343l-.53-6,2.83-3.9-3.37-.53L817.22,334l-5.58-2.31L808,328.48l-2.83-1.42L803,324.4l-3-3.19,1.6-3.54-3-2.49-3.2-1.59,1.78-1.6,2.13-2.66,1.77-2.83v-2.31c5.67-3.19,15.6-2.13,15.6-2.13h6.85l.77-3.36-.77-3.37,1.31-1.42,3-3.19-2.84-5-1.48-2.48h7.1l5.2.77,4.19,1.48s4-1.07,5.14,0,10.64-3.67,10.64-3.67,8.28-2.12,9.46-5l2.6.71v9.69s-1.72,6,1.24,9.93c2.83,3.74.24.58,0,.31l1,4a16.35,16.35,0,0,1,1.72,0,40.14,40.14,0,0,0,3.36-2.66,6.31,6.31,0,0,1,2.49-1.59c1.47-.48,4.84.65,4.84.65l2.84,1.3a27.18,27.18,0,0,1,2.13,3.07c0,.3.82,4.37.82,4.37a5.34,5.34,0,0,0,2.37,3.55,6.76,6.76,0,0,0,5,.83s4.43-4.08,6.27.41l3.25,4.14,1.89,3.42s1.18,3.14,3.6,4.38a8.67,8.67,0,0,0,4.14,1.12,6.6,6.6,0,0,0,3.72-.83c2-1.06,7.74-2.36,7.74-2.36h3.37l1.48.83.35,1.89-1.18,3.6a6,6,0,0,0-.88,4.38,24.84,24.84,0,0,0,1.41,4.72l3.2,1.24.88.83v3.67S936.27,345,934.06,346.12Z" transform="translate(-618.2 -109.05)"/><path class="cls-1" d="M956,407.55v1.6l-1,3.81-.26,1.51-.27,2.83-2.57.62-1.15,4.17s-9.75,2.66-14.45,10.37l-.18,4.52h-10.1l-1.24,2.13,1.42,3.9,2.3,7.8L927,455.6l-2.12,2.66-6.92,1.42-3.72,3.54-2.84,4.08h-6.2v5h3l3.72,2.66,1.78,5h4.25l2,1.06-2.83,2.3-3.73,1.95-.88,2.84-1.24,2.48,1.41,3.19-.35,3.91h-2.31l-4.78-1.42L902,497.62l-3,2.12-2.12,3h-2.66l-3.73-2.49-3.19-.17-2.84-.71L882.46,498l-6,4.79-2.19,1.06-2.6,2.31-2.13,2.65-5.67,3.9-3.37-1.24-5.32-.71-1.95,1.95v9.22l-1.77,2.84,2.3,5.67,3.73,3.9,1.95,3.9-1.07,3-6.56.71-1.24,1.24h-3.46l-.62-2.75-2-2.92-1.5-1.16.17-8.77-1.5-.62-1.42-1.33-.44-1.42-.89-1.24-1.42.44-3.72,3-2.57,2.49s-2.22.17-1.86-3.64l4.61-4.16,2.83-3.37,1.33-4.43.09-3.46s1.9-1.64,2.6-2.16c-.85.47-3.57,1.89-3.57,1.89l-.89,1.86-.53,3.64-.89,2.3-1.6,1.86s-2,.8-2.74,1.07-3.28,1.24-3.28,1.24l-2.84-.18-.35-4.52L823.43,506l-1.6-7.27-1.68-4.52s.35-4.61,0-5.14-1.69-5.86-1.69-5.86l-1.5-3,.08-6.65-2.74-5.67a45,45,0,0,1-.54-5.5c.09-1.42.09-3,.09-3l-3.45-5.76,1-2.75s1.06-2.31,1.86-2.31a4.53,4.53,0,0,1,1.33.18l1.42,1.69,1,2.21.79-2.21-1-1.42s-.89-2-1.15-2a18.07,18.07,0,0,1-2.13-.8l5.67-3.19,3.55-2.84L818.11,437l1.24-5.32,7.27-5.32s6.38-1.59,7.44-1.95,6-4.43,6-4.43,3.19,2.13,4.26,2.13,7.62-1.6,8.15-2.13,7.27-3.19,7.27-3.19,2.13-3,3.19-3,3.73-.54,4.43,0,2-2.66,2-2.66a27.25,27.25,0,0,0-2.48-3.9,34.94,34.94,0,0,0-3.54-1.42l1.95-5.67.35-4.61,1.24-3.9,5.32-2.49,3.9-5.14v-2.3l7.8-3.9.89-4.79,1.59-2.84,4.08.89,3.37-3.37.36.8,1.06,6.2-.71,3.2-.09,2.48h8.07l2,2.12H909l3.1,3.37,4.08-1.15,4.79,1.6,2.74,1.77s7.18.53,7.45.71-.27,2.75-.27,2.75l3.91,3.37,3.81,3.1s12.85,2.3,16.22,6.65Z" transform="translate(-618.2 -109.05)"/><path class="cls-1" d="M1027.49,520.22l-.53,9.13-1.51,4.88-3.64,4.43-.35,2.83s1.77,4.35,1.77,5.41v3.46l-2.66,2.3H1011v8.78l5.41,1.68s.09,6.3-.09,6.56-2.31,3.73-2.57,3.9.62,6.83.62,6.83l-2.13,6.74s-.26,11-.26,11.25,3.36,6.21,3.36,6.21l.8,5L1014.9,615l-4.79-1.77-5.14,2.84-4.61-1.42h-4.07l3.19-4.44-7.27-1.59-5.68,1.77-3.9-1.77-4.07-1.6-5.5-.88s-3.19-1.24-7.09-11.53h-4.26l-4.07-1.24-5-2.13L948.42,587l-5.5-2.84-3.63-2.66-3.46-5-2.31-5-1.77-4.08-3.37-3.55V563l3.55-4.26-2.31-4.08,4.26-4.61,4.25-1.24,1.42-7.62.18-4.79,2.3-2.66-1.24-1.95h-4.25l-4.08,1.42-5.32-1.42-3.72-2.3-2.84,1.24s-2.83,1.59-4.61,2.48-6.38.53-6.38.53l-5.32-2.12-5-.54-3.9-2.48-2.66-2.3-2.13-1.6H886.9v3l.88,2.49-2.3,1.77-4.08,5-5.85,1.6L871.3,538l-5.68.17-3-2-3.19,2-1.95-3.9-3.73-3.9-2.3-5.67,1.77-2.84v-9.22l1.95-1.95,5.32.71,3.37,1.24,5.67-3.9,2.13-2.65,2.6-2.31,2.19-1.06,6-4.79,1.95,1.42,2.84.71,3.19.17,3.73,2.49h2.66l2.12-3,3-2.12,3.19-1.42,4.78,1.42h2.31l.35-3.91-1.41-3.19,1.24-2.48.88-2.84,3.73-1.95,2.83-2.3-2-1.06h-4.25l-1.78-5-3.72-2.66h-3v-5h6.2l2.84-4.08,3.72-3.54,6.92-1.42L927,455.6l1.6-4.79-2.3-7.8-1.42-3.9,1.24-2.13h10.1a21.1,21.1,0,0,0,3.19,1.15c.54,0,2.58-1.77,2.58-1.77l3-1.33,3,.27,3.46,2.83,6.83-.44,3.19-1.24h5.32l4.25,1.68s9.66-2.57,13.65-6.73v-3.55l2-2,1.24,1.78,1.6,2.57,4.34.79v2.66h-2l.18,3.28.09,1.69-4.79,1.33-.79,5.49s9.57,3.64,8.15,8.16l1.42,3.72-1.33,2.4-1.24,2.83,6.74,5.23,2.48.53,1.86-1.33-.53,4.26-.89,1.42-5.5-1.33-6.56-1.6s-5.49,1-5.67,2.93l-1.59,5.14-1.42,3.81-2.31,2.13-.62,5.41-1.77,2.12,1.15,1.51s8.87,7.45,27.48,8.95l3.46,1.51,3.9,2.66,3.28,4.17,2,2.65v3.2l.44,2.3s6.3-.89,7-.89S1027.49,520.22,1027.49,520.22Z" transform="translate(-618.2 -109.05)"/><path class="cls-1" d="M1021.81,627l.54,2.21s-1.42.09-2.31.09a48.57,48.57,0,0,1-4.78-.88l-4.79-2.13H1006l-3.37,2.66-4.79-.89-3.28.89h-9l-6.92-4.79-3.37,2.13s-6.91-.71-7.8,0-3.9-2.13-3.9-2.13v2.13s-1.95,1.42-2.66,1.42h-4.07l-3.37-.54-7.27-.88-9.4-2.13H931.4l-4.79,1.06-2.13,4.26s-5.67,2.84-6,3.37-5.14,2.3-6.2,2.3-5,2.66-5,2.66l1.06,5.15s0,3,.71,3.89-4.79-1.41-4.79-1.41-3.19,1.24-4.08,0a7.25,7.25,0,0,0-4.43-2.4l-1.15-2.48,1.59-3.19.36-1.69-1.42.71-1,1.78-2.66,1.42-1.69-2.4-1.77-1.68s-.8-1.07-.27-1.33,2.13-1,2.13-1l-1-1-4.08-.53,1.06,3.19,1.33,3.28-.09,3.28a16.47,16.47,0,0,1-1.15,2.92c-.35.36-3,.53-3,.53l-2.31.18s-.8.89-.8,1.15-1.86.27-1.86.27l-1.42-4-1-4.17-1.39-6.11-2-8.42-1.42-4-5.41-13.39-9.57-19.68s-.71-6.38-11.7-25.17l-2.48-5-1.15-1.37-.18-3.68-1.55-2.44-4.39-9.44a13.26,13.26,0,0,0-3.19-8.24s4.43-5.41,4.43-5.14,1.15-.62,1.15-.62l1.78.17-.09,4,1.77.27s.53,1.77.18,1.77-.8,2.22-.8,2.22l-.27,2,.62,2.21a22.92,22.92,0,0,1,2.93,1.51,22.88,22.88,0,0,1-.53,3.81s-.07,2.17,1.16,3.07a1.93,1.93,0,0,0,.61.3l.53,1.15,1.77-.17.71-2-.09-2.75h3.46l1.24-1.24,6.56-.71,1.07-3,3.19-2,3,2,5.68-.17,4.25.53,5.85-1.6,4.08-5,2.3-1.77-.88-2.49v-3h3.72l2.13,1.6,2.66,2.3,3.9,2.48,5,.54,5.32,2.12s4.61.36,6.38-.53,4.61-2.48,4.61-2.48l2.84-1.24,3.72,2.3,5.32,1.42,4.08-1.42h4.25l1.24,1.95-2.3,2.66-.18,4.79-1.42,7.62-4.25,1.24-4.26,4.61,2.31,4.08L928.38,563v.88l3.37,3.55,1.77,4.08,2.31,5,3.46,5,3.63,2.66,5.5,2.84,4.25,4.25,5,2.13,4.07,1.24H966c3.9,10.29,7.09,11.53,7.09,11.53l5.5.88,4.07,1.6,3.9,1.77,5.68-1.77,7.27,1.59-3.19,4.44h4.07l4.61,1.42,5.14-2.84,4.79,1.77-.44,7.71a15.23,15.23,0,0,1,1.59,1.07,17,17,0,0,0,2.93.8l1.59-.89,3.37.44Z" transform="translate(-618.2 -109.05)"/><path class="cls-1" d="M1016.14,679.69l-4.43.71-3-2.13-5.32.89-3.55,2s.36,4.26,1.24,4.08-2.13,2.3-2.13,2.3-1.06,1.78-2.12,1.24-6,0-6.56,0-1.42,2.31-1.42,2.31v3L986,696.36l-3,1.42v3.9h-8.51l-1.42,2.12v9.4l-3.72,3.72L964,714.26l-3,3.55v3.37L956.93,723l-1.42-2.66-2.13-.88-2.3-2.13-.89-2.48,3.19-2.84-4.25-1.06-3.9,2.83h-2.66L938,714.8l-3.37,3.85-4.26,1.64-3.72-1.95L921.47,717l-.53-4.34-.54-1.77-2.3-2,.09-3-6.56-5.05-.09-2.3-1.86-1.07-1.42-1.95.09,1.95-.89,1.15-1.33-1.06-4.34-4.79-2.22-3.19.62-1.77,1.87-1.68-1.33-3.28-.89-3.11.26-2.66-2.83-2.57-.27-5.14-4.16-3.54-1.07-1.95v-3.64l-1.68-1.68-.62-2.57-.71-2.13L887,651.59l-1.25-1.42-1.15-2.12s.09-1.95.36-2,5,1.5,5,1.5l5.14,2.49,5.05,3.63s4.88,3.37,4.61,3.46a12.34,12.34,0,0,0,2,.18l1.33-.36-.79-1.24-2.4-.71-6.38-5.14-4.26-1.77-2.74-1.95,1.41-2.84,2.84-.18a7.25,7.25,0,0,1,4.43,2.4c.89,1.24,4.08,0,4.08,0s5.5,2.3,4.79,1.41-.71-3.89-.71-3.89l-1.06-5.15s3.9-2.66,5-2.66,5.85-1.77,6.2-2.3,6-3.37,6-3.37l2.13-4.26,4.79-1.06h5.49l9.4,2.13,7.27.88,3.37.54H961c.71,0,2.66-1.42,2.66-1.42V624.2s3,2.84,3.9,2.13,7.8,0,7.8,0l3.37-2.13,6.92,4.79-.89,5L983,639.09l-3.9,3-4.43,6.65,1.06,3.45,4.43,3.19c8.16,6,14.45,10.46,14.45,10.46l8.95,6.74,4.44,3Z" transform="translate(-618.2 -109.05)"/><path class="cls-1" d="M1129.67,784.18v3.9l-3.31,4.84s-.36,3.78-3.67,3.78l-4.61,2.84-1.06,3.19-1.3,13.95-3,3.19-4.13,1.66-.83,5-2.6,2.72.47,8.15-1.59-1.47-3-2.31-4.07-.35-3.2-1.24v-3.73l1.25-2.83v-4.26l-.54-3.55,1.6-2.12.89-2.31v-2.83l-2.66-2.84-1.78-2.66-2.3-4.08-1.06-4.43-3-2.66-2.84.18-4.25,2.48-1.77,2.13-2.49,1.42-6.38-.18-5,.35-5.5,3.19-1.59,3.9-1.42,2.13-2.31-1.77v-4.26l-1.59-2.83h-9.58l-4.61.17-1.24,1.6,2.31-3.9,4.43-2.3,2.13-1.6v-6.74l-3.55,1.07-4.43-1.42-6-1.77-4.25-4.26-1.75-7.09,1.39-6.21.53-3.54,3.73-1.42,4.25-1.42-1.42-5-1.77-.89-2.13.89c1.78-3.37-2.48-12.41-2.48-12.41s-2.66-3-3.37-3.73-4.25,0-4.25,0l-2.31-2-4.43-4.43-1.42-3.9-9.75-8.33L997,720.47s-3.36,1.77-4.07,1.24a30,30,0,0,0-2.84-1.6l-2.66-1.24-5.67-2h-5l-3.72-3.72v-9.4l1.42-2.12H983v-3.9l3-1.42,2.84-2.31v-3s.89-2.31,1.42-2.31,5.49-.53,6.56,0,2.12-1.24,2.12-1.24,3-2.48,2.13-2.3-1.24-4.08-1.24-4.08l3.55-2,5.32-.89,3,2.13,4.43-.71-8.15-4.07-4.44-3-8.95-6.74s-6.29-4.43-14.45-10.46l-4.43-3.19-1.06-3.45,4.43-6.65,3.9-3,1.77-5.14.89-5h9l3.28-.89,4.79.89,3.37-2.66h4.43l4.79,2.13a48.57,48.57,0,0,0,4.78.88c.89,0,2.31-.09,2.31-.09l7.27,7.54s5.31.44,5.76.44a25.94,25.94,0,0,1,3.37,1.42l1.68.8,3.37-1.6,4.34.09,1.86-2.84,4.35-.88,2.13-1.6.79-4.7,1.51-3.28s3.81-3.45,11.44-5.76l3.19-1.24,4.07-2.92,3.82-2.4,8.42-.09,2.57,2.66,1.42,3.19.71,3.55,2.12,4.17,2.66,4.52.45,4.34,2.48,1.33,2.57,1.33v4.17l-1,4.87-2.48,8.87-1.06,2.72H1094l-3.43,1.3a4,4,0,0,0-2,3.78c.21,2.37-.26,2-.35,1.9.14.29,2.8,5.34,5.78,6.49s3.9,5,3.9,5l.59,5.44,1.54,3.9,3.31,2s.35,4-1.3,4.14l-4.14,3.66s-9.57,9.1-4,16.19l-.94,4.14v2.48l.83,3.08,3,1.3.71,1.77-1.42,2.36-2.84,2.48.12,2.49-.82,3.9L1089,744l-1.3,6.38-1,2.48-2.24,4.38L1083.1,761l.12,3.66h5.67l3.19,3.55,2.84,2.6,5.2,1.06h4.58l9-5.91v4.38l2.13,2,3.19-5,.71-.23v8.27a1.3,1.3,0,0,0,.51.05,11,11,0,0,0,4.69,5.62Z" transform="translate(-618.2 -109.05)"/><path class="cls-1" d="M1044.51,787.66v6.74l-2.13,1.6-4.43,2.3-2.31,3.9-2.12,4.08-3.9-.89-3.2-3.54-3.9-3.55-5.67.89-2.84-.54-4.43,1.07-4.61,1.42-5-.18-2.13-2.48-1.77-4.08-2.31-.89-1.42,2.13-2.48,3.72-3.37-5.67-1.77-2.3L978.91,790l-4.43,4.78-4.26,2-3.72,2.13-1.24,5.85H951.08l-1.07,1.6V802.2l-1.77-2.84,1.77-4.78-1.77-7.09-4.88-3.28,1.16-1.07.62-2-1.33-1.68-.71-2.31L942,775.43l-2.39-2.13-4.43-.09-2.48,1.24-2.13.54-.89-1.16-.35-3.54s2.21-.89,2.48-4.35l-1.33-2.21-1.33-2.13.27-6.74-1-1.33-.44-.7-.36-5-2.74-.71-1.33-1,.08-11.08s-1.33-2.93-1.41-3.28-1.07-2.57-1.07-2.57v-2.4l.27-1.5,1.42-1.42.62-2.66-2.31-1.33-.44-1.42.71-1.51,5.14,1.33,3.72,1.95,4.26-1.64L938,714.8l4.61-1.07h2.66l3.9-2.83,4.25,1.06-3.19,2.84.89,2.48,2.3,2.13,2.13.88,1.42,2.66,4.07-1.77v-3.37l3-3.55,5.32,2.66,3.72-3.72,3.72,3.72h5l5.67,2,2.66,1.24a30,30,0,0,1,2.84,1.6c.71.53,4.07-1.24,4.07-1.24l4.08,1.42,9.75,8.33,1.42,3.9,4.43,4.43,2.31,2s3.54-.71,4.25,0,3.37,3.73,3.37,3.73,4.26,9,2.48,12.41l2.13-.89,1.77.89,1.42,5-4.25,1.42-3.73,1.42-.53,3.54-1.39,6.21,1.75,7.09,4.25,4.26,6,1.77,4.43,1.42Z" transform="translate(-618.2 -109.05)"/><path class="cls-1" d="M984.76,860.88l-1.3-.81-.75-.48-2.09-1.31-.47,2.13-3.07-.59-2.25.95-1.42,2-4,1.76-5.91.35-3.67,2.6-3.19,1.07-1.65-3-4.61-2.82h-7l-.89-.89,1.11-1.86s4.12-1.46.22-2.44S941,860,941,860l.4,2.83-.71.71s.09,1.6-1.86-3.72l-3.25-10.05-.94-6.38-1.54-2.72s-2.84-5.91-3,1.78l2.6,3.9,1.71,4.43,2.72,8,1,1.95-.06,2.18-1,.71L936,862l-.42-2.9-4-10.1-3-4.61-.77-3.05-2.25-4-4-6.53-12.06-37.46-1.77-6.92s-.71-1.95-.71-11.7l-1.18-5.5-1.66-20.92-1.54-5.37-.11-13.6L901.2,726l-1.07-2.12L899,720.47v-8.86l-1.53-3.79-1.07-4.72-2.13-3.31-.11-3.9-1.3-1.78-.36-2.83,2.25-.83,2.24,1.18s.36,6,5.91,8.27l2,1.51.36,2.39-1,.36-2.57.26-.89.8-1.06-.53-.62-1.33-.89.18V705l.89,1.95.09,1.42.88,2.21,1.25.27.08-3.37.36-.89,1.42-.62.44,2.57v3.28l.62,1.86-1.51,1.42-1.59.71.35,2.84s1.16,7.62,2,1.33l1-1.86,1.15-.09.44-4.88-.71-2s-.26-2.83,0-2.92a11.74,11.74,0,0,1,2.31.71l1.15,2.21-.26,5.14,1.24,1.69s.17,3,.17,3.28.18,6.11.18,6.11l1.33,5.23,1.51,3.82.26,2.74s.62,2.75.62,3-.53,2.39-.53,2.39l-.09,1.6.8.62,1.42-.53.44-1.6.18-3.55-.62-3.45-1-4.08-.8-5.76-1.24-3.55-.27-3.63-.8-2.13-.53-2.22-.53-3.9s.8-1.86,3.1-.35l.71,3.37v2.39s-.89,1.24,1.69,2.66l2.3,2.13,2.93.62-.36,1.33-1.86.88-.89,1.33.53,3.73,1.42,1.41-.71,7.63-.09,3.19-.44,1.86v2.31l1.69,2.57,3,2.12.53,1.69-1.15,6-2.13,6.47-1.24,5.67-2.22,3.37-1.32,1.59v4.79l.88,1,3.81,1.5,3,1.78,6.2-.45.89,1.78v1.15l1.06.89,2.31-.09.09-2.57.71-.18,2.74-.44,1,1.06,1.15.26,2.66.89,1-1.06.08-2.48,4.88,3.28,1.77,7.09-1.77,4.78L950,802.2v4.08l-2,1.77.18,1.42v3.9l2.13,2.48-2.13,1.77-3.19.89-1.73,1.6v3.54l1.55.18,2.66.18,4.43-.18,2.13-2.3,3.55-.18,3.36-3.73,4.26,1.78,6,2,3.9,2.3.53,4.79,3.81,3.72,2.93,2L978,836.42l-.17,6.56-3.55.88,2.66,4.08,4.26,2.31,2.65,4.61Z" transform="translate(-618.2 -109.05)"/><path class="cls-1" d="M1105.67,837.36l-1.41,5.44-.36,4-2.48,3.54.35,10-2.72,1.66-.47,1.65L1095,866l-6,6.73-.59,5.44-1.42-.59-4.85-1.3L1078,875l-4.14.12c-11.82-2.72-15-8.39-15-8.39l-5.67-.48-6.62-.82-5.91-2-4.61-2.84-3-1.06.12,2,2,.95,2,2.25v2l-2.72.82-2.84-2.24-2.83-.59-3.43-.24h-3.19l-3.07,2.25-1.9,3.66-3.66.94-2.25-1.41-4.25-1.07-3.19-.59a9.89,9.89,0,0,0-3.19,2.6c-1.07,1.54.94,2.84.94,2.84l-1.06,3.07-4,.83H992.8l-2.48-2.6s-3.79-.59-4.73-.59a15.51,15.51,0,0,0-3,.59l-1.53-1.77.47-4.61.83-2,2.36-2.49v-3.19l-.89-6-2.65-4.61L977,847.94l-2.66-4.08,3.55-.88.17-6.56,4.44-2.31-2.93-2-3.81-3.72-.53-4.79-3.9-2.3-6-2L961,817.62l-3.36,3.73-3.55.18-2.13,2.3-4.43.18-2.66-.18-1.55-.18v-3.54l1.73-1.6,3.19-.89,2.13-1.77-2.13-2.48v-3.9l-.18-1.42,2-1.77,1.07-1.6h14.18l1.24-5.85,3.72-2.13,4.26-2,4.43-4.78,5.85,1.42,1.77,2.3,3.37,5.67,2.48-3.72,1.42-2.13,2.31.89,1.77,4.08L1000,801l5,.18,4.61-1.42,4.43-1.07,2.84.54,5.67-.89,3.9,3.55,3.2,3.54,3.9.89,2.12-4.08,1.24-1.6,4.61-.17h9.58l1.59,2.83v4.26l2.31,1.77,1.42-2.13,1.59-3.9,5.5-3.19,5-.35,6.38.18,2.49-1.42,1.77-2.13,4.25-2.48,2.84-.18,3,2.66,1.06,4.43,2.3,4.08,1.78,2.66,2.66,2.84v2.83l-.89,2.31-1.6,2.12.54,3.55v4.26l-1.25,2.83V832l3.2,1.24,4.07.35,3,2.31Z" transform="translate(-618.2 -109.05)"/><path class="cls-1" d="M1099.29,922v3.19l-2.13,1.77-3.31,5-2.12,4.13-2.49,3-4.61-3.07-5-1s-6.15-2.36-6.15-3.07-3.54-3.07-3.54-3.07l-5.91-2.61-5-1.41-1.19-3.31L1056,922.7l-.94,3.07-1.89,5.32v3l-1.19,3.31h-4l-2.6-4.5a27.09,27.09,0,0,0-3.78,3.55c-2.13,2.36-8.51,3.07-8.51,3.07l-2.6-1.65-1.89-4.26-1.42-5.43-5.43,2.83h-2.6l-2.37-1.48v-2.06l-1.65-2.6-1.19.11h-1.53l-2-2.24v1.06l-2.13,2.13-4.49-1.18-4.61-1,1.21,1.16c1.36,1.31,3.45,3.34,4,4,.83,1.07-1.77,3.31-2.13,3.08s-1.53.82-1.53.82l-5.09-.82h-3.07l-2.13,1.89H989l-2.06.55-.69,1.26-1.26.53h0l-4.47,2.92-5.63-7,2.92-.67,1.15-2.3,1.25-.13-.62-2.4s-1.87,1.51-2,1.69a24.84,24.84,0,0,1-3.2.75l-1.19,1.37L963,918.5l-5.4.22-5.06-6.78.31-3.85-3.14-3.81.13-15.87L939,869l.12-3.43,1.3.95.12,2.83,1.53,3.08,3.31,3.19.48,3.43,2.6,5,1.53,2.36,1.07,2,1.77.48.83-3.43-3-.24-1.18-3-2.28-5.17-.79-3L943,872.32,942.8,870l-.82-2.24.23-1.77.83.94,1.89,2.31s1.06.71.59-1.48L943.69,866l-.24-1.07.24-1.53a2.67,2.67,0,0,0-.37-.58h7l4.61,2.82,1.65,3,3.19-1.07,3.67-2.6,5.91-.35,4-1.76,1.42-2,2.25-.95,3.07.59.47-2.13,2.09,1.31.75.48,1.3.81v3.19l-2.36,2.49-.83,2-.47,4.61,1.53,1.77a15.51,15.51,0,0,1,3-.59c.94,0,4.73.59,4.73.59l2.48,2.6h3.78l4-.83,1.06-3.07s-2-1.3-.94-2.84a9.89,9.89,0,0,1,3.19-2.6l3.19.59,4.25,1.07,2.25,1.41,3.66-.94,1.9-3.66,3.07-2.25h3.19l3.43.24,2.83.59,2.84,2.24,2.72-.82v-2l-2-2.25-2-.95-.12-2,3,1.06,4.61,2.84,5.91,2,6.62.82,5.67.48s3.19,5.67,15,8.39L1078,875l4.13,1.3,4.85,1.3,1.42.59-3.79,4.25-3.54,1.31-1.3,4.13,3,8.63,2.84,5.56,4.61,3.19,1.65,2.48.12,1.65s3.31,5,3.67,5.91,1.89.59,1.89.59l1.65,2.25Z" transform="translate(-618.2 -109.05)"/><path class="cls-1" d="M1101.42,981.56l-1,6.85v4l-1.77,1.42-2.13,1.42-2.6-1.65-3.19-1.78-2.36.24-1.89,2,1.06,2.24.83,4.5,2.6,1.89v3.19l-4.26.71-1.65,5.79-2,5.08h-3.78V1021l1.41,1.41.6,3.43.82,2.37.71,2h-3.07l-5.32-1.54-3.07,2.48.59,3.07h-2.6l-2.6,3.31h-2s-9.81-8.45-17.79-11.46l-1.42-4.08-3.9-.89-.71-4.43a167.55,167.55,0,0,1-17-19.15l-11.26-15.46-3-3.77-.76-1.51,1.51-1.06,3.28,3,.09-.84s-4.7-7-7.71-8.33,3.32,5.18,3.32,5.18l-1.51,1.6-11.08-15.16-2.52-2.75,5.89-3.32s2.35-3.73-1.77-1.86l-5,3.41-12.81-14.8,1.78-2,1.68-1.51s3.1,1.11,3.24,1.25,2,1.41,2,1.41,3.19,0,1.46-3.72a14.38,14.38,0,0,1-2.08.13c-.18-.09-1.51-.4-1.51-.4a15.64,15.64,0,0,0-2.1-.8l1.26-.53.69-1.26,2.06-.55h1.41l2.13-1.89h3.07l5.09.82s1.18-1.06,1.53-.82,3-2,2.13-3.08c-.54-.7-2.63-2.73-4-4l-1.21-1.16,4.61,1,4.49,1.18,2.13-2.13V922.7l2,2.24H1014l1.19-.11,1.65,2.6v2.06l2.37,1.48h2.6l5.43-2.83,1.42,5.43,1.89,4.26,2.6,1.65s6.38-.71,8.51-3.07a27.09,27.09,0,0,1,3.78-3.55l2.6,4.5h4l1.19-3.31v-3l1.89-5.32.94-3.07,1.89-1.18,1.19,3.31,5,1.41,5.91,2.61s3.54,2.36,3.54,3.07,6.15,3.07,6.15,3.07l5,1,4.61,3.07-2.71,5.32-1.78,1.77-1.42.71-.23,2.6,2.48,4.73,3.19,3.54-.12,6.27,3.08,2.24,2,1.78s2.71,8.39,6.14,9.45Z" transform="translate(-618.2 -109.05)"/><path class="cls-1" d="M896.47,686.31v1.18h-3l-.89-3.19s-3.49-9.81-8.57-16.19l-.41-2.25s.29-1.65.47-1.65a24.71,24.71,0,0,1,2.25,1.36l1.06.35.41-1.71-2-1.18-.71-3.78a25,25,0,0,0-3.13-5.91l-2.24-2.72.82-1.83a17.06,17.06,0,0,1,1.78,0,14.92,14.92,0,0,1,2.36,1.41l2.54,4.08,1.48,3.25s-.06,2.25,0,2.48,1.12,3.31,1.12,3.31l-.12,2.48,3.9,3.61,1.36,2.07v2.3l1,1.48-.77,4.43-.77,1.95.65,2.6Z" transform="translate(-618.2 -109.05)"/><path class="cls-1" d="M1008.28,925.89" transform="translate(-618.2 -109.05)"/><path class="cls-1" d="M901.2,726" transform="translate(-618.2 -109.05)"/><path class="cls-1" d="M892.92,643.26a6.31,6.31,0,0,1,2.84-.18" transform="translate(-618.2 -109.05)"/></svg>