<svg id="Layer_1" data-name="Layer 1" xmlns="http://www.w3.org/2000/svg" viewBox="0 0 584.44 584.44"><defs><style>.cls-1{fill:#009444;}.cls-2{fill:#ed1c24;}</style></defs><title>Untitled-2</title><path class="cls-1" d="M792.22,500a294.12,294.12,0,0,1-2.45,38C772.76,669,669,772.76,538,789.77A292.6,292.6,0,0,1,230,612a290.07,290.07,0,0,1-19.79-74,295.92,295.92,0,0,1,0-76C227.24,331,331,227.24,462,210.23a292.21,292.21,0,0,1,269.93,112l-62.55,36.12A220.81,220.81,0,1,0,717.55,538H651.42a157.27,157.27,0,0,0,0-76H789.77A294.12,294.12,0,0,1,792.22,500Z" transform="translate(-207.78 -207.78)"/><path class="cls-2" d="M651.42,462q-.6-2.42-1.29-4.8A156.12,156.12,0,0,0,348.58,538q.6,2.41,1.28,4.8A156.12,156.12,0,0,0,651.42,462ZM462,634.84A140.36,140.36,0,0,1,365.17,538H462ZM462,462H365.17A140.31,140.31,0,0,1,462,365.17Zm76,172.84V538h96.84A140.34,140.34,0,0,1,538,634.84ZM538,462V365.17A140.31,140.31,0,0,1,634.84,462Z" transform="translate(-207.78 -207.78)"/></svg>